<?xml version="1.0" encoding="UTF-8" standalone="no"?>
<svg
   xmlns:dc="http://purl.org/dc/elements/1.1/"
   xmlns:cc="http://creativecommons.org/ns#"
   xmlns:rdf="http://www.w3.org/1999/02/22-rdf-syntax-ns#"
   xmlns:svg="http://www.w3.org/2000/svg"
   xmlns="http://www.w3.org/2000/svg"
   xmlns:sodipodi="http://sodipodi.sourceforge.net/DTD/sodipodi-0.dtd"
   xmlns:inkscape="http://www.inkscape.org/namespaces/inkscape"
   version="1.1"
   x="0"
   y="0"
   width="564.22015"
   height="334.39999"
   viewBox="0 0 564.22015 334.39999"
   id="svg27"
   sodipodi:docname="microscope-logo.svg"
   inkscape:version="0.92.4 (5da689c313, 2019-01-14)">
  <metadata
     id="metadata33">
    <rdf:RDF>
      <cc:Work
         rdf:about="">
        <dc:format>image/svg+xml</dc:format>
        <dc:type
           rdf:resource="http://purl.org/dc/dcmitype/StillImage" />
        <dc:title></dc:title>
      </cc:Work>
    </rdf:RDF>
  </metadata>
  <defs
     id="defs31" />
  <sodipodi:namedview
     pagecolor="#ffffff"
     bordercolor="#666666"
     borderopacity="1"
     objecttolerance="10"
     gridtolerance="10"
     guidetolerance="10"
     inkscape:pageopacity="0"
     inkscape:pageshadow="2"
     inkscape:window-width="1920"
     inkscape:window-height="1016"
     id="namedview29"
     showgrid="false"
     inkscape:zoom="0.76497831"
     inkscape:cx="-187.62217"
     inkscape:cy="216.90159"
     inkscape:window-x="0"
     inkscape:window-y="27"
     inkscape:window-maximized="1"
     inkscape:current-layer="text20-2"
     showguides="true"
     inkscape:guide-bbox="true"
     inkscape:snap-text-baseline="true"
     fit-margin-top="0"
     fit-margin-left="0"
     fit-margin-right="0"
     fit-margin-bottom="0" />
  <path
     inkscape:connector-curvature="0"
     id="path927"
     style="font-style:normal;font-variant:normal;font-weight:bold;font-stretch:normal;font-size:300px;font-family:sans-serif;-inkscape-font-specification:'sans-serif Bold';letter-spacing:-20px;fill:#1ca3fe"
     d="m 195.0739,207.81054 h 52.73437 V 264.5 H 195.0739 Z" />
  <g
     id="g891"
     transform="translate(-94.5,-262)">
    <path
       d="m 105.5,302 h 67 v 84 h -67 z"
       id="path2"
       inkscape:connector-curvature="0"
       style="fill:#1ca3fe" />
    <path
       d="m 128,275.64851 h 22 v 37.9505 h -22 z"
       id="path4"
       inkscape:connector-curvature="0"
       style="fill:#1ca3fe;stroke-width:1.07238758" />
    <path
       d="m 121.5,262 h 35 v 16 h -35 z"
       id="path6"
       inkscape:connector-curvature="0"
       style="fill:#1ca3fe" />
    <path
       d="m 128,383.40099 h 22 V 415 h -22 z"
       id="path8"
       inkscape:connector-curvature="0"
       style="fill:#1ca3fe;stroke-width:1.04384911" />
    <path
       d="m 94.5,427 h 89 v 32.46387 h -89 z"
       id="path10"
       inkscape:connector-curvature="0"
       style="fill:#1ca3fe;stroke-width:0.91236335" />
    <path
       d="m 108.0002,487.5 h 163.7 v 39 h -163.7 z"
       id="path12"
       inkscape:connector-curvature="0"
       style="fill:#1ca3fe;stroke-width:1.02438223" />
    <path
       d="m 164,324.5 h 43.89533 v 39 H 164 Z"
       id="path16"
       inkscape:connector-curvature="0"
       style="fill:#1ca3fe;stroke-width:0.96640742" />
    <path
       sodipodi:nodetypes="cc"
       d="m 206.56843,344 c 50.08543,0 45.626,88.01399 45.626,145.831"
       id="path22"
       inkscape:connector-curvature="0"
       style="fill-opacity:0;stroke:#1ca3fe;stroke-width:39;stroke-miterlimit:4;stroke-dasharray:none;stroke-opacity:1" />
    <path
       d="m 119.5,459 h 39 v 39 h -39 z"
       id="path24"
       inkscape:connector-curvature="0"
       style="fill:#1ca3fe" />
  </g>
  <g
     aria-label="py"
     style="letter-spacing:0px"
     id="text20-2">
    <path
       d="m 406.84046,188.6 q 0,35.1 -21.6,57.9 -20.4,22.2 -49.5,22.2 -16.5,0 -29.7,-5.7 v 66.6 h -40.5 V 116.9 h 35.4 v 9 q 16.8,-13.2 39.6,-13.2 30,0 48,21.3 18.3,21 18.3,54.6 z m -40.8,1.2 q 0,-20.4 -10.5,-32.7 -9.9,-11.1 -24.6,-11.1 -8.1,0 -16.8,3.6 -6.3,2.4 -8.1,4.2 v 75.6 q 12,6 22.5,6 16.8,0 27,-11.7 10.5,-12 10.5,-33.9 z"
       style="font-style:normal;font-variant:normal;font-weight:normal;font-stretch:normal;font-size:300px;font-family:FoundrySterling-Bold;-inkscape-font-specification:'FoundrySterling-Bold, Normal';font-variant-ligatures:normal;font-variant-caps:normal;font-variant-numeric:normal;font-feature-settings:normal;text-align:start;writing-mode:lr-tb;text-anchor:start;stroke:none;stroke-opacity:1;fill:#1ca3fe;fill-opacity:1"
       id="path28" />
    <path
       d="m 564.22015,116.9 -58.5,149.1 q -15.9,40.5 -28.5,53.1 -15.3,15.3 -43.2,15.3 -20.1,0 -36.9,-9.3 l 12,-28.8 q 12,5.1 22.8,5.1 12.6,0 20.1,-7.5 6,-6 14.7,-29.4 l -61.8,-147.6 h 42.9 l 39.6,103.5 36.9,-103.5 z"
       style="font-style:normal;font-variant:normal;font-weight:normal;font-stretch:normal;font-size:300px;font-family:FoundrySterling-Bold;-inkscape-font-specification:'FoundrySterling-Bold, Normal';font-variant-ligatures:normal;font-variant-caps:normal;font-variant-numeric:normal;font-feature-settings:normal;text-align:start;writing-mode:lr-tb;text-anchor:start;fill:#1ca3fe;fill-opacity:1"
       id="path30" />
  </g>
</svg>
